<?xml version="1.0" encoding="utf-8"?>
<!-- Generator: Adobe Illustrator 22.1.0, SVG Export Plug-In . SVG Version: 6.00 Build 0)  -->
<svg version="1.1"
	 id="Слой_1" xmlns:cc="http://creativecommons.org/ns#" xmlns:dc="http://purl.org/dc/elements/1.1/" xmlns:inkscape="http://www.inkscape.org/namespaces/inkscape" xmlns:rdf="http://www.w3.org/1999/02/22-rdf-syntax-ns#" xmlns:sodipodi="http://sodipodi.sourceforge.net/DTD/sodipodi-0.dtd" xmlns:svg="http://www.w3.org/2000/svg"
	 width="40px"
	 height="40px"
	 xmlns="http://www.w3.org/2000/svg" xmlns:xlink="http://www.w3.org/1999/xlink" x="0px" y="0px" viewBox="0 0 72 72"
	 style="enable-background:new 0 0 72 72;" xml:space="preserve">
<g
	fill="white"
 transform="translate(0,-952.36218)">
	<path d="M36,952.4c-1.7,0-3,1.3-3,3v30H3c-1.7,0-3,1.3-3,3c0,1.7,1.3,3,3,3h30v30c0,1.7,1.3,3,3,3c1.7,0,3-1.3,3-3v-30h30
		c1.7,0,3-1.3,3-3c0-1.7-1.3-3-3-3H39v-30C39,953.7,37.7,952.4,36,952.4z"/>
</g>
</svg>
