<?xml version="1.0" encoding="utf-8"?>
<!-- Generator: Adobe Illustrator 22.1.0, SVG Export Plug-In . SVG Version: 6.00 Build 0)  -->
<svg version="1.1" id="Слой_1" xmlns="http://www.w3.org/2000/svg" xmlns:xlink="http://www.w3.org/1999/xlink" x="0px" y="0px"
		width="20px"
		height="20px"
	 viewBox="0 0 48 48" style="enable-background:new 0 0 48 48;" xml:space="preserve">
<g 
>
	<path fill="white" d="M30.9,23.5c3.5-2.3,5.9-6.2,5.9-10.7C36.8,5.8,31.1,0,24,0c-7,0-12.8,5.7-12.8,12.8c0,4.5,2.3,8.4,5.9,10.7
		C7.2,26.5,0,35.6,0,46.5C0,47.3,0.7,48,1.5,48S3,47.3,3,46.5c0-11.3,8.8-20.5,20.1-21c0.3,0,0.6,0,0.9,0s0.6,0,0.9,0
		C36.2,26,45,35.2,45,46.5c0,0.8,0.7,1.5,1.5,1.5s1.5-0.7,1.5-1.5C48,35.7,40.9,26.5,30.9,23.5z M14.2,12.8C14.2,7.4,18.6,3,24,3
		s9.8,4.4,9.8,9.8c0,5.1-3.9,9.3-8.8,9.7c-0.6,0-1.2,0-1.9,0C18.1,22.1,14.2,17.9,14.2,12.8z"/>
</g>
</svg>
