<?xml version="1.0" encoding="utf-8"?>
<!-- Generator: Adobe Illustrator 22.1.0, SVG Export Plug-In . SVG Version: 6.00 Build 0)  -->
<svg version="1.1" id="Слой_1" xmlns="http://www.w3.org/2000/svg" xmlns:xlink="http://www.w3.org/1999/xlink" x="0px" y="0px"
	 width="20px"
	 height="20px"
	 viewBox="0 0 312 312" style="enable-background:new 0 0 312 312;" xml:space="preserve">
<g fill="white">
	<path d="M210,88l-54,54l-54-54c-3.9-3.9-10.1-3.9-14,0l0,0c-3.9,3.9-3.9,10.1,0,14l54,54l-54,54c-3.9,3.9-3.9,10.1,0,14h0
		c3.9,3.9,10.1,3.9,14,0l54-54l54,54c3.9,3.9,10.1,3.9,14,0l0,0c3.9-3.9,3.9-10.1,0-14l-54-54l54-54c3.9-3.9,3.9-10.1,0-14v0
		C220.1,84.1,213.9,84.1,210,88z"/>
	<path d="M152.5,0c88.8-2,161.4,70.7,159.5,159.5c-1.8,83.1-69.4,150.6-152.4,152.4C70.7,313.9-1.9,241.3,0,152.5
		C1.9,69.4,69.4,1.9,152.5,0z M125.3,21.3c-51.9,11.1-92.8,52-104,104C0.9,220.3,77.8,304.2,173.1,293
		c62.7-7.4,112.5-57.2,119.8-119.8C304.2,77.8,220.3,0.9,125.3,21.3z"/>
</g>
</svg>
