<?xml version="1.0" encoding="utf-8"?>
<!-- Generator: Adobe Illustrator 22.1.0, SVG Export Plug-In . SVG Version: 6.00 Build 0)  -->
<svg version="1.1"
width="20px"
		height="20px"
	 id="Слой_1" xmlns:cc="http://creativecommons.org/ns#" xmlns:dc="http://purl.org/dc/elements/1.1/" xmlns:inkscape="http://www.inkscape.org/namespaces/inkscape" xmlns:rdf="http://www.w3.org/1999/02/22-rdf-syntax-ns#" xmlns:sodipodi="http://sodipodi.sourceforge.net/DTD/sodipodi-0.dtd" xmlns:svg="http://www.w3.org/2000/svg"
	 xmlns="http://www.w3.org/2000/svg" xmlns:xlink="http://www.w3.org/1999/xlink" x="0px" y="0px" viewBox="0 0 72 72"
	 style="enable-background:new 0 0 72 72;" xml:space="preserve">
<g transform="translate(0,-952.36218)">
	<path fill="white" d="M36,952.4c-19.9,0-36,16.1-36,36s16.1,36,36,36s36-16.1,36-36S55.9,952.4,36,952.4z M36,956.4c17.7,0,32,14.3,32,32
		s-14.3,32-32,32s-32-14.3-32-32S18.3,956.4,36,956.4z M36,968.4c-6.5,0-12,5.5-12,12c0,1.1,0.9,2,2,2c1.1,0,2-0.9,2-2
		c0,0,0,0,0-0.1c0-4.2,3.8-8,8-8s8,3.8,8,8c0,3.5-1.8,5.3-4.3,7.5c-1.2,1.1-2.6,2.3-3.7,3.8c-1.1,1.5-2,3.4-2,5.6v1.1
		c0,1.1,0.9,2,2,2c1.1,0,2-0.9,2-2c0,0,0,0,0-0.1v-1.1c0-1.3,0.4-2.2,1.2-3.2s1.9-2.1,3.2-3.2c2.5-2.3,5.7-5.4,5.6-10.5c0,0,0,0,0,0
		C48,973.8,42.5,968.4,36,968.4z M36,1003.4c-1.7,0-3,1.3-3,3c0,1.7,1.3,3,3,3s3-1.3,3-3C39,1004.7,37.7,1003.4,36,1003.4z"/>
</g>
</svg>
