<?xml version="1.0" encoding="utf-8"?>
<!-- Generator: Adobe Illustrator 22.1.0, SVG Export Plug-In . SVG Version: 6.00 Build 0)  -->
<svg version="1.1" id="Слой_1" xmlns="http://www.w3.org/2000/svg" xmlns:xlink="http://www.w3.org/1999/xlink" x="0px" y="0px"
	 	 width="20px"
	 height="20px"
		fill="white"

	 viewBox="0 0 44.6 42" style="enable-background:new 0 0 44.6 42;" xml:space="preserve">
<title>Upload s17.2</title>
<desc>Created with Sketch.</desc>
<g>
	<g>
		<path d="M44.3,22.7l-12.1,12c-0.9,0.9-2.4-0.5-1.4-1.4l9.6-9.6c0.4-0.4,0.3-0.7-0.3-0.7H16c-0.5,0-1-0.4-1-1c0-0.6,0.4-1,1-1h24.1
			c0.5,0,0.7-0.3,0.3-0.7l-9.6-9.6c-0.9-0.9,0.5-2.4,1.4-1.4l12.1,12C44.7,21.7,44.7,22.3,44.3,22.7z M2,3l0,36c0,0.5,0.4,1,1,1h8
			c0.6,0,1,0.4,1,1s-0.4,1-1,1H2c-1.1,0-2-0.9-2-2V2c0-1.1,0.9-2,2-2h9c0.6,0,1,0.4,1,1s-0.4,1-1,1L3,2C2.4,2,2,2.5,2,3z"/>
	</g>
</g>
</svg>
