<?xml version="1.0" encoding="utf-8"?>
<!-- Generator: Adobe Illustrator 22.1.0, SVG Export Plug-In . SVG Version: 6.00 Build 0)  -->
<svg version="1.1" id="Слой_1" xmlns="http://www.w3.org/2000/svg" xmlns:xlink="http://www.w3.org/1999/xlink" x="0px" y="0px"
	width="20px"
		height="20px"
	 viewBox="0 0 90 72.7" style="enable-background:new 0 0 90 72.7;" xml:space="preserve">
<style type="text/css">
	.st0{fill:none;}
	.st1{fill:none;stroke:#000000;stroke-width:3;stroke-miterlimit:10;}
</style>
<g>
	<path fill="white" class="st0" d="M45.4,4.5c-0.6,0-1.1,0.1-1.7,0.1C36.2,5.3,29,7.7,23,11.5c-3,1.9-5.7,4.2-7.9,6.7c-5.8,6.4-8.6,14.2-7.8,22
		c0.3,3.5,1.3,6.8,3,10c0.6,1.1,0.5,2.4-0.1,3.4c-1.6,2.7-3.6,4.8-5.7,6.4c2.8,1.1,7.6,2.4,13.2,1c0.3-0.1,0.5-0.1,0.8-0.1
		c0.7,0,1.4,0.2,1.9,0.6c2.4,1.7,5.1,3.1,7.9,4.3c1.3,0.5,2.7,1,4.2,1.4c5.5,1.6,11.3,2.1,17.2,1.6c12.7-1.2,24.2-7.3,30.9-16.4
		c4.3-5.9,6.2-12.6,5.6-19.3C84.5,15.8,66.6,3.2,45.4,4.5z"/>
	<path fill="white" d="M89.9,32.7c-1.8-19.3-21.4-33.4-44.7-32c-0.6,0-1.2,0.1-1.8,0.1c-8.1,0.7-15.9,3.4-22.4,7.5c-3.3,2.1-6.2,4.6-8.7,7.4
		c-6.5,7.2-9.6,16.1-8.8,24.9c0.4,3.9,1.5,7.7,3.3,11.2c-1.5,2.4-3.2,4.2-5.1,5.4c-1,0.7-1.6,1.9-1.5,3.1c0.1,1.2,0.9,2.3,2,2.8
		c3,1.3,9,3.3,16.2,1.6c2.6,1.8,5.5,3.3,8.5,4.6c1.4,0.6,3,1.1,4.6,1.6c4.4,1.3,9.1,1.9,13.7,1.9c1.6,0,3.2-0.1,4.8-0.2
		c13.8-1.3,26.3-8,33.6-18C88.4,47.9,90.6,40.3,89.9,32.7z M80.4,52.3c-6.6,9.1-18.2,15.2-30.9,16.4c-5.9,0.5-11.7,0-17.2-1.6
		c-1.5-0.4-2.9-0.9-4.2-1.4c-2.9-1.1-5.5-2.6-7.9-4.3c-0.6-0.4-1.3-0.6-1.9-0.6c-0.3,0-0.5,0-0.8,0.1c-5.6,1.4-10.4,0.1-13.2-1
		c2.2-1.6,4.1-3.7,5.7-6.4c0.6-1,0.7-2.3,0.1-3.4c-1.6-3.1-2.6-6.5-3-10c-0.7-7.8,2.1-15.6,7.8-22c2.3-2.5,4.9-4.8,7.9-6.7
		c6-3.9,13.2-6.3,20.7-7c0.6-0.1,1.1-0.1,1.7-0.1C66.6,3.2,84.5,15.8,86.1,33C86.7,39.7,84.7,46.4,80.4,52.3z"/>
</g>
</svg>
