<?xml version="1.0" encoding="utf-8"?>
<!-- Generator: Adobe Illustrator 22.1.0, SVG Export Plug-In . SVG Version: 6.00 Build 0)  -->
<svg version="1.1" id="Слой_1" xmlns="http://www.w3.org/2000/svg" xmlns:xlink="http://www.w3.org/1999/xlink" x="0px" y="0px"
	 width="25px"
	 height="25px"
	 viewBox="0 0 24.1 24.2" style="enable-background:new 0 0 24.1 24.2;" xml:space="preserve">
<title>Glass, magnifying, search, zoom</title>
<g
	fill="#b8c0ee"
>
	<path d="M9.8,19.8C4.4,19.8,0,15.4,0,10s4.4-9.8,9.8-9.8s9.8,4.4,9.8,9.8c0,2.6-1,5.1-2.9,6.9C14.9,18.7,12.4,19.8,9.8,19.8z
		 M9.8,2.1C5.5,2.1,2,5.6,2,10s3.5,7.8,7.8,7.8c4.3,0,7.8-3.5,7.8-7.8c0-2.1-0.8-4.1-2.3-5.5C13.9,3,11.9,2.1,9.8,2.1z"/>
	<path d="M23.1,24.2c-0.3,0-0.5-0.1-0.7-0.3l-7-7c-0.4-0.4-0.4-1,0-1.4c0.4-0.4,1-0.4,1.4,0l7,7c0.4,0.4,0.4,1,0,1.4
		C23.6,24.1,23.3,24.2,23.1,24.2z"/>
</g>
</svg>
