<?xml version="1.0" encoding="utf-8"?>
<!-- Generator: Adobe Illustrator 22.1.0, SVG Export Plug-In . SVG Version: 6.00 Build 0)  -->
<svg width="20px"
		height="20px" version="1.1" id="Слой_1" xmlns="http://www.w3.org/2000/svg" xmlns:xlink="http://www.w3.org/1999/xlink" x="0px" y="0px"
	 viewBox="0 0 60 60" style="enable-background:new 0 0 60 60;" xml:space="preserve">
<path fill="white" d="M56.3,24.3l-4.8-1.1c-0.4-1.2-0.9-2.3-1.4-3.5l2.6-4.3c1-1.6,1.5-3.8,0-5.3L50,7.5c-0.7-0.7-1.7-1-2.6-1c-1,0-2,0.3-2.8,0.9
	L40.3,10c-1.1-0.6-2.2-1.1-3.4-1.4l-1.1-4.9c-0.3-1.8-1.9-3.7-4-3.7h-3.8c-2.1,0-3.3,2-3.8,3.8l-1.2,4.8c-1.3,0.4-2.5,0.9-3.6,1.5
	l-4.3-2.8c-0.8-0.5-1.8-0.9-2.8-0.9c-1,0-1.9,0.3-2.6,1l-2.6,2.7c-1.5,1.5-1,3.8,0,5.3L9.9,20c-0.5,1-1,2.1-1.3,3.2l-4.8,1.1
	c-1.8,0.3-3.7,1.9-3.7,4V32c0,2.1,2,3.3,3.8,3.7L8.6,37c0.3,1,0.8,2,1.2,3l-2.7,4.6c-1,1.6-1.5,3.8,0,5.3l2.7,2.7
	c0.7,0.7,1.7,1,2.6,1c1,0,2-0.3,2.8-0.9l4.3-2.8c1.2,0.6,2.4,1.1,3.7,1.5l1.2,4.8c0.4,1.8,1.7,3.8,3.8,3.8h3.8c2.1,0,3.6-1.9,4-3.7
	l1.1-4.9c1.2-0.4,2.3-0.9,3.4-1.4l4.2,2.7c0.8,0.5,1.8,0.9,2.8,0.9c1,0,1.9-0.3,2.6-1l2.7-2.7c1.5-1.5,1-3.8,0-5.3L50,40.2
	c0.5-1,1-2.1,1.3-3.2l4.9-1.2C58,35.4,60,34.1,60,32v-3.8C60,26.2,58.1,24.6,56.3,24.3z M57,32c0,0.1-0.6,0.6-1.5,0.8l-4.9,1.2
	L49,34.5l-0.5,1.6c-0.3,0.9-0.7,1.9-1.2,2.8l-0.8,1.5l0.9,1.4l2.6,4.4c0.5,0.8,0.5,1.5,0.4,1.6l-2.7,2.7c-0.1,0.1-0.4,0.1-0.5,0.1
	c-0.4,0-0.8-0.1-1.1-0.3l0,0l0,0l-4.2-2.7l-1.5-0.9l-1.5,0.8c-1,0.5-2,0.9-2.9,1.2l-1.6,0.5L34,50.7l-1.1,4.9l0,0.1
	c-0.1,0.6-0.7,1.3-1,1.3h-3.8c-0.2,0-0.6-0.6-0.8-1.5l-1.2-4.8l-0.4-1.6l-1.6-0.5c-1.1-0.3-2.1-0.8-3.2-1.3l-1.5-0.8l-1.5,0.9
	l-4.3,2.8l-0.1,0l0,0c-0.3,0.2-0.7,0.3-1.1,0.3c-0.1,0-0.4,0-0.5-0.1l-2.7-2.6c-0.1-0.1-0.1-0.8,0.4-1.6l2.7-4.6l0.8-1.4l-0.7-1.5
	c-0.4-0.9-0.8-1.7-1.1-2.6L11,34.5l-1.6-0.4l-4.9-1.2C3.6,32.6,3,32.2,3,32v-3.8c0-0.3,0.6-0.9,1.3-1l0.1,0l0.1,0l4.8-1.1l1.7-0.4
	l0.5-1.7c0.3-0.9,0.7-1.8,1.1-2.8l0.7-1.5l-0.8-1.4l-2.8-4.6c-0.5-0.8-0.5-1.5-0.4-1.6l2.6-2.7c0.1-0.1,0.4-0.1,0.5-0.1
	c0.4,0,0.8,0.1,1.1,0.3l0,0l0.1,0l4.3,2.8l1.5,0.9l1.5-0.8c1-0.5,2.1-1,3.2-1.3l1.6-0.5l0.4-1.6l1.2-4.9C27.5,3.6,28,3,28.1,3h3.8
	c0.3,0,0.9,0.6,1,1.3l0,0.1l0,0.1L34,9.2l0.4,1.7l1.6,0.5c1,0.3,2,0.7,3,1.2l1.5,0.8l1.5-0.9l4.2-2.7l0,0l0,0
	c0.3-0.2,0.7-0.3,1.1-0.3c0.1,0,0.4,0,0.5,0.1l2.6,2.6c0.1,0.1,0.1,0.8-0.4,1.6l-2.6,4.3l-0.9,1.4l0.8,1.5c0.5,1,0.9,2,1.2,3
	l0.5,1.7l1.7,0.4l4.8,1.1l0.1,0l0.1,0c0.6,0.1,1.3,0.7,1.3,1L57,32L57,32z M30,18c-6.6,0-12,5.4-12,12c0,6.6,5.4,12,12,12
	c6.6,0,12-5.4,12-12C42.1,23.4,36.7,18,30,18z M30.1,39.1c-5,0-9.1-4.1-9.1-9s4.1-9,9.1-9c5,0,9.1,4.1,9.1,9S35.1,39.1,30.1,39.1z"
	/>
</svg>
