<?xml version="1.0" encoding="utf-8"?>
<!-- Generator: Adobe Illustrator 22.1.0, SVG Export Plug-In . SVG Version: 6.00 Build 0)  -->
<svg version="1.1" id="Слой_1" xmlns="http://www.w3.org/2000/svg" xmlns:xlink="http://www.w3.org/1999/xlink" x="0px" y="0px"
	 width="20px"
		height="20px" viewBox="0 0 18 18" style="enable-background:new 0 0 18 18;" xml:space="preserve">
<title>rounded</title>
<path fill="white" d="M9,0C4,0,0,4,0,9s4,9,9,9s9-4,9-9S14,0,9,0z M9,17c-4.4,0-8-3.6-8-8s3.6-8,8-8s8,3.6,8,8C17,13.4,13.4,17,9,17z M14,9.5
	c0,0.3-0.2,0.5-0.5,0.5c0,0,0,0,0,0h-5C8.2,10,8,9.8,8,9.5c0,0,0,0,0,0v-6C8,3.2,8.2,3,8.5,3S9,3.2,9,3.5V9h4.5
	C13.8,9,14,9.2,14,9.5C14,9.5,14,9.5,14,9.5z"/>
</svg>
